<svg width="38" height="41" viewBox="0 0 38 41" fill="none" xmlns="http://www.w3.org/2000/svg">
<path d="M16.6182 33.6211L10.4703 40.2188L9.98581 32.9923L8.72873 32.6982C-0.926522 28.0718 1.75549 11.5774 4.37045 7.75548C6.98542 3.93361 11.8801 2.65965 16.6182 2.1903C21.3562 1.72095 26.363 2.8608 30.0508 4.93937C33.7385 7.01793 35.0125 12.6502 35.0125 18.6847C35.0125 24.7192 33.8726 28.407 30.6542 31.3572C28.0795 33.7174 20.224 33.8499 16.6182 33.6211Z" fill="#580996"/>
<path d="M36.9434 23.8125C38.1375 13.7755 36.3736 7.44577 33.1892 4.57359C28.0537 -0.320036 10.6957 -1.04589 4.55331 4.79213C1.7904 7.6487 0.814799 11.8399 0.705531 17.0301C0.596263 22.2203 0.471386 31.9451 9.53279 34.5832H9.5406L9.53279 38.6105C9.53279 38.6105 9.47036 40.2417 10.5162 40.5695C11.7103 40.9519 12.2489 40.1948 15.9562 35.7695C22.1532 36.308 26.922 35.0749 27.4605 34.8954C28.7093 34.4739 35.7961 33.5295 36.9434 23.8125ZM16.5649 32.9285C16.5649 32.9285 12.6391 37.8222 11.4216 39.0944C11.0235 39.508 10.5864 39.469 10.5943 38.6495C10.5943 38.111 10.6255 31.9607 10.6255 31.9607C2.94552 29.7598 3.3982 21.4789 3.48405 17.1472C3.5699 12.8155 4.35819 9.2643 6.69964 6.87602C12.0928 1.81849 27.3044 2.95019 31.1834 6.59504C35.9209 10.794 34.2351 22.6652 34.2429 23.071C33.2673 31.1881 27.5307 31.7032 26.4693 32.0544C26.0088 32.2027 21.8254 33.2798 16.5649 32.9285Z" fill="white"/>
<path d="M18.7346 7.83594C18.0946 7.83594 18.0946 8.83496 18.7346 8.84276C23.7063 8.88178 27.8038 12.3471 27.8507 18.7081C27.8507 19.3793 28.8341 19.3715 28.8263 18.7003C28.7716 11.8476 24.2995 7.87496 18.7346 7.83594Z" fill="white"/>
<path d="M25.283 17.6547C25.2674 18.3181 26.2508 18.3493 26.2586 17.6781C26.3366 13.9005 24.0108 10.7864 19.6323 10.4586C18.9923 10.4118 18.922 11.4186 19.562 11.4654C23.3552 11.7542 25.3532 14.3454 25.283 17.6547Z" fill="white"/>
<path d="M24.2294 21.9472C23.4099 21.4711 22.567 21.7677 22.2236 22.236L21.4977 23.1725C21.1309 23.6486 20.4441 23.5862 20.4441 23.5862C15.4256 22.2594 14.0831 17.0067 14.0831 17.0067C14.0831 17.0067 14.0207 16.2965 14.4812 15.914L15.3866 15.1648C15.8392 14.8058 16.128 13.9394 15.6675 13.0887C14.4344 10.8643 13.6071 10.0916 13.1856 9.50628C12.7407 8.95214 12.0773 8.82726 11.3827 9.20189H11.3671C9.92317 10.0448 8.34659 11.6214 8.85391 13.2448C9.71244 14.9541 11.2968 20.4096 16.3387 24.5384C18.7114 26.4896 22.4577 28.4876 24.0499 28.9481L24.0655 28.9715C25.6343 29.4945 27.1562 27.8554 27.9757 26.3725V26.3569C28.3348 25.6389 28.2177 24.9598 27.687 24.515C26.7504 23.6018 25.3377 22.595 24.2294 21.9472Z" fill="white"/>
<path d="M20.3113 14.1735C21.9113 14.2671 22.684 15.1022 22.7699 16.8193C22.8011 17.4905 23.7767 17.4437 23.7455 16.7725C23.6362 14.5325 22.4733 13.2837 20.366 13.1666C19.726 13.1276 19.6635 14.1344 20.3113 14.1735Z" fill="white"/>
</svg>
