<svg width="37" height="41" viewBox="0 0 37 41" fill="none" xmlns="http://www.w3.org/2000/svg">
<path d="M15.937 33.6211L9.78915 40.2188L9.30465 32.9923L8.04758 32.6982C-1.60767 28.0718 1.07433 11.5774 3.6893 7.75548C6.30426 3.93361 11.1989 2.65965 15.937 2.1903C20.6751 1.72095 25.6818 2.8608 29.3696 4.93937C33.0574 7.01793 34.3313 12.6502 34.3313 18.6847C34.3313 24.7192 33.1915 28.407 29.9731 31.3572C27.3983 33.7174 19.5429 33.8499 15.937 33.6211Z" fill="#7D3DAF"/>
<path d="M36.2622 23.8125C37.4563 13.7755 35.6925 7.44577 32.5081 4.57359C27.3725 -0.320036 10.0146 -1.04589 3.87216 4.79213C1.10925 7.6487 0.133646 11.8399 0.0243786 17.0301C-0.084889 22.2203 -0.209767 31.9451 8.85164 34.5832H8.85945L8.85164 38.6105C8.85164 38.6105 8.7892 40.2417 9.83505 40.5695C11.0292 40.9519 11.5677 40.1948 15.275 35.7695C21.4721 36.308 26.2408 35.0749 26.7793 34.8954C28.0281 34.4739 35.1149 33.5295 36.2622 23.8125ZM15.8838 32.9285C15.8838 32.9285 11.958 37.8222 10.7404 39.0944C10.3424 39.508 9.90529 39.469 9.9131 38.6495C9.9131 38.111 9.94432 31.9607 9.94432 31.9607C2.26436 29.7598 2.71704 21.4789 2.8029 17.1472C2.88875 12.8155 3.67704 9.2643 6.01849 6.87602C11.4116 1.81849 26.6232 2.95019 30.5022 6.59504C35.2398 10.794 33.5539 22.6652 33.5617 23.071C32.5861 31.1881 26.8496 31.7032 25.7881 32.0544C25.3276 32.2027 21.1442 33.2798 15.8838 32.9285Z" fill="white"/>
<path d="M18.0535 7.83594C17.4135 7.83594 17.4135 8.83496 18.0535 8.84276C23.0252 8.88178 27.1227 12.3471 27.1695 18.7081C27.1695 19.3793 28.1529 19.3715 28.1451 18.7003C28.0905 11.8476 23.6183 7.87496 18.0535 7.83594Z" fill="white"/>
<path d="M24.6018 17.6547C24.5862 18.3181 25.5696 18.3493 25.5774 17.6781C25.6555 13.9005 23.3296 10.7864 18.9511 10.4586C18.3111 10.4118 18.2409 11.4186 18.8809 11.4654C22.674 11.7542 24.6721 14.3454 24.6018 17.6547Z" fill="white"/>
<path d="M23.5483 21.9472C22.7288 21.4711 21.8858 21.7677 21.5424 22.236L20.8166 23.1725C20.4498 23.6486 19.7629 23.5862 19.7629 23.5862C14.7444 22.2594 13.402 17.0067 13.402 17.0067C13.402 17.0067 13.3396 16.2965 13.8 15.914L14.7054 15.1648C15.1581 14.8058 15.4469 13.9394 14.9864 13.0887C13.7532 10.8643 12.9259 10.0916 12.5044 9.50628C12.0596 8.95214 11.3962 8.82726 10.7015 9.20189H10.6859C9.24202 10.0448 7.66544 11.6214 8.17276 13.2448C9.03129 14.9541 10.6157 20.4096 15.6576 24.5384C18.0303 26.4896 21.7766 28.4876 23.3688 28.9481L23.3844 28.9715C24.9531 29.4945 26.4751 27.8554 27.2946 26.3725V26.3569C27.6536 25.6389 27.5365 24.9598 27.0058 24.515C26.0692 23.6018 24.6566 22.595 23.5483 21.9472Z" fill="white"/>
<path d="M19.6302 14.1735C21.2302 14.2671 22.0029 15.1022 22.0887 16.8193C22.1199 17.4905 23.0955 17.4437 23.0643 16.7725C22.955 14.5325 21.7921 13.2837 19.6848 13.1666C19.0448 13.1276 18.9824 14.1344 19.6302 14.1735Z" fill="white"/>
</svg>
