<svg width="15" height="19" viewBox="0 0 15 19" fill="none" xmlns="http://www.w3.org/2000/svg">
<path d="M9.33607 11.1017C9.21127 11.7568 9.57942 12.0751 10.0661 12.2935C10.7587 12.6054 11.4638 12.88 12.144 13.2045C12.8304 13.5289 13.4668 13.9408 13.966 14.5398C14.4652 15.1451 14.5151 15.8502 14.3778 16.574C14.2842 17.0544 13.9286 17.3602 13.523 17.5911C12.7867 18.0091 11.9755 18.1776 11.1456 18.2837C8.94296 18.5582 6.72782 18.5582 4.51893 18.3586C3.63911 18.2774 2.77178 18.1277 1.94812 17.7783C1.84205 17.7346 1.74221 17.6847 1.64237 17.6285C0.207214 16.8984 0.375689 15.2886 1.10575 14.5211C1.36158 14.2528 1.64237 13.9844 1.9606 13.8035C2.89034 13.2793 3.82007 12.7552 4.79348 12.3122C5.84801 11.8317 6.02272 11.2951 5.30514 10.3778C4.27557 9.06747 3.72023 7.60112 3.80759 5.90388C3.92614 3.66379 5.56098 2.0664 8.0569 2.35343C9.97877 2.57806 11.1519 3.93834 11.2517 5.9226C11.3016 6.9085 11.1144 7.84447 10.7213 8.743C10.584 9.06123 10.0162 9.26715 9.70422 9.11115C9.14887 8.84284 8.56857 8.87404 8.00699 9.03627C7.539 9.17355 7.27069 9.69145 7.33932 10.1782C7.4142 10.6836 7.83851 11.0767 8.36265 11.1017C8.66841 11.1079 8.97416 11.1017 9.33607 11.1017Z" fill="white"/>
<path d="M11.7884 7.80696C11.7884 7.46377 11.7884 7.12058 11.7884 6.77739C11.7884 6.45292 11.9132 6.19709 12.1628 5.99117C12.2314 5.93501 12.2876 5.80398 12.2813 5.71662C12.0255 3.57636 10.6403 2.01017 8.56864 1.4985C6.14135 0.89324 3.52063 2.44072 2.88417 4.85553C2.80929 5.13632 2.75937 5.42335 2.72193 5.71038C2.70945 5.79774 2.76561 5.92877 2.83425 5.99117C3.09008 6.19709 3.21488 6.45292 3.21488 6.77739C3.21488 7.38889 3.22736 8.00663 3.20864 8.61814C3.19616 9.2234 2.80305 9.57283 2.20403 9.55411C1.67364 9.54163 1.31173 9.14228 1.31173 8.56822C1.30549 7.96295 1.28677 7.36393 1.32421 6.75867C1.33669 6.5278 1.44277 6.25324 1.60501 6.10349C1.7922 5.92253 1.84836 5.74158 1.87956 5.51695C2.09171 3.80724 2.91537 2.45943 4.31933 1.48602C7.51411 -0.729112 12.0317 0.974358 12.9802 4.73697C13.0301 4.9304 13.0738 5.1176 13.0988 5.31727C13.1362 5.64798 13.1674 5.94749 13.4731 6.18461C13.6104 6.29068 13.6666 6.55276 13.6728 6.74619C13.6978 7.37017 13.6915 7.99415 13.6791 8.61814C13.6728 9.29827 13.0551 9.71634 12.3937 9.51667C12.2751 9.47923 12.1066 9.49795 12.0068 9.56035C11.3641 9.94722 10.6652 10.1531 9.92892 10.2592C9.78541 10.2779 9.65437 10.3715 9.51709 10.4277C9.39854 10.4776 9.27998 10.5712 9.15518 10.5774C8.88687 10.6024 8.61232 10.5962 8.34401 10.5774C8.0445 10.5525 7.84482 10.3341 7.8261 10.0471C7.81362 9.76002 8.00082 9.49795 8.29409 9.48547C8.72464 9.46675 9.18638 9.31699 9.57325 9.67266C9.61069 9.70386 9.69181 9.69762 9.74797 9.69762C10.4094 9.63522 11.0334 9.46051 11.6012 9.11108C11.6948 9.05492 11.7697 8.89269 11.7759 8.77413C11.8009 8.4559 11.7821 8.13143 11.7821 7.80696C11.7946 7.80696 11.7884 7.80696 11.7884 7.80696Z" fill="white"/>
</svg>
