<svg width="20" height="17" viewBox="0 0 20 17" fill="none" xmlns="http://www.w3.org/2000/svg">
<path d="M1.88648 7.9529C1.1639 7.16839 0.802612 6.12581 0.802612 4.81484C0.802612 3.50387 1.1639 2.46129 1.88648 1.67677C2.60906 0.892258 3.54842 0.5 4.69423 0.5C5.84003 0.5 6.76906 0.892258 7.49164 1.67677C8.21423 2.46129 8.56519 3.50387 8.56519 4.81484C8.56519 6.12581 8.2039 7.16839 7.49164 7.9529C6.77939 8.73742 5.84003 9.12968 4.69423 9.12968C3.54842 9.12968 2.60906 8.73742 1.88648 7.9529ZM5.89164 6.6729C6.18068 6.26 6.32519 5.64065 6.32519 4.81484C6.32519 3.99935 6.18068 3.38 5.89164 2.95677C5.60261 2.54387 5.20003 2.3271 4.69423 2.3271C4.19874 2.3271 3.80648 2.54387 3.50713 2.9671C3.20777 3.39032 3.06326 4.00968 3.06326 4.81484C3.06326 5.62 3.20777 6.22903 3.50713 6.66258C3.80648 7.08581 4.19874 7.30258 4.69423 7.30258C5.20003 7.29226 5.59229 7.08581 5.89164 6.6729ZM14.0155 0.675484H16.6787L5.98455 16.3245H3.33164L14.0155 0.675484ZM13.3033 15.9735C12.7149 15.6226 12.2607 15.1168 11.9304 14.4665C11.6 13.8161 11.4349 13.0523 11.4349 12.1852C11.4349 11.3181 11.6 10.5645 11.9304 9.90387C12.2607 9.25355 12.7149 8.74774 13.3033 8.39677C13.8916 8.04581 14.5626 7.87032 15.3058 7.87032C16.4516 7.87032 17.391 8.26258 18.1136 9.0471C18.8362 9.83161 19.1975 10.8742 19.1975 12.1852C19.1975 13.4961 18.8362 14.5387 18.1136 15.3232C17.391 16.1077 16.4516 16.5 15.3058 16.5C14.5626 16.5 13.8916 16.3245 13.3033 15.9735ZM16.5033 14.0329C16.7923 13.6097 16.9368 12.9903 16.9368 12.1852C16.9368 11.38 16.7923 10.771 16.5033 10.3374C16.2142 9.91419 15.8116 9.69742 15.3058 9.69742C14.8104 9.69742 14.4181 9.90387 14.1187 10.3271C13.8194 10.74 13.6749 11.3594 13.6749 12.1852C13.6749 13.0006 13.8194 13.62 14.1187 14.0432C14.4181 14.4561 14.8104 14.6729 15.3058 14.6729C15.8116 14.6729 16.2142 14.4561 16.5033 14.0329Z" fill="white"/>
</svg>
