<svg width="12" height="12" viewBox="0 0 12 12" fill="none" xmlns="http://www.w3.org/2000/svg">
<path d="M5.04894 1.13017C5.3483 0.208863 6.6517 0.208865 6.95106 1.13018L7.5716 3.04001C7.70547 3.45203 8.08943 3.73099 8.52265 3.73099H10.5308C11.4995 3.73099 11.9023 4.9706 11.1186 5.54001L9.49395 6.72035C9.14347 6.97499 8.99681 7.42636 9.13068 7.83838L9.75122 9.74821C10.0506 10.6695 8.9961 11.4356 8.21238 10.8662L6.58778 9.6859C6.2373 9.43126 5.7627 9.43126 5.41221 9.6859L3.78761 10.8662C3.0039 11.4356 1.94942 10.6695 2.24877 9.74821L2.86932 7.83838C3.00319 7.42636 2.85653 6.97499 2.50604 6.72035L0.881445 5.54001C0.0977311 4.9706 0.500508 3.73099 1.46923 3.73099H3.47735C3.91057 3.73099 4.29453 3.45203 4.4284 3.04001L5.04894 1.13017Z" fill="#E0E1E4"/>
</svg>
