<svg width="26" height="24" viewBox="0 0 26 24" fill="none" xmlns="http://www.w3.org/2000/svg">
<path d="M12.0489 1.40773C12.3483 0.486423 13.6517 0.486422 13.9511 1.40773L16.1432 8.15444C16.2771 8.56647 16.661 8.84543 17.0943 8.84543H24.1882C25.1569 8.84543 25.5597 10.085 24.7759 10.6544L19.0369 14.8241C18.6864 15.0788 18.5397 15.5302 18.6736 15.9422L20.8657 22.6889C21.1651 23.6102 20.1106 24.3763 19.3269 23.8069L13.5878 19.6372C13.2373 19.3826 12.7627 19.3826 12.4122 19.6372L6.67312 23.8069C5.88941 24.3763 4.83493 23.6102 5.13428 22.6889L7.32642 15.9422C7.46029 15.5302 7.31363 15.0788 6.96315 14.8241L1.22405 10.6544C0.440337 10.085 0.843112 8.84543 1.81184 8.84543H8.90575C9.33897 8.84543 9.72293 8.56647 9.8568 8.15444L12.0489 1.40773Z" fill="#FFB800"/>
</svg>
