<svg width="171" height="36" viewBox="0 0 171 36" fill="none" xmlns="http://www.w3.org/2000/svg">
<path d="M12.7448 2.25249L14.4887 2.50439C14.9731 2.58189 15.1669 3.16318 14.8181 3.51195L13.5586 4.75204C13.423 4.88767 13.3649 5.08143 13.3842 5.2752L13.6749 7.01906C13.7524 7.50347 13.2486 7.87162 12.8223 7.6391L11.2528 6.80592C11.0785 6.70904 10.8653 6.70904 10.7103 6.80592L9.1602 7.61973C8.73393 7.85224 8.21077 7.48409 8.30765 6.99969L8.59829 5.25582C8.63704 5.06206 8.55954 4.86829 8.42391 4.73266L7.16445 3.51195C6.81567 3.16318 7.00944 2.58189 7.49384 2.50439L9.23771 2.25249C9.43147 2.23312 9.60586 2.09748 9.68336 1.9231L10.4584 0.334241C10.6716 -0.111414 11.311 -0.111414 11.5241 0.334241L12.2992 1.9231C12.3767 2.11686 12.5511 2.23312 12.7448 2.25249Z" fill="white"/>
<path d="M12.7448 30.5613L14.4887 30.8132C14.9731 30.8907 15.1669 31.472 14.8181 31.8207L13.5586 33.0414C13.423 33.1771 13.3649 33.3708 13.3842 33.5646L13.6749 35.3085C13.7524 35.7929 13.2486 36.161 12.8223 35.9285L11.2528 35.1147C11.0785 35.0178 10.8653 35.0178 10.7103 35.1147L9.1602 35.9285C8.73393 36.161 8.21077 35.7929 8.30765 35.3085L8.59829 33.5646C8.63704 33.3708 8.55954 33.1771 8.42391 33.0414L7.16445 31.8207C6.81567 31.472 7.00944 30.8907 7.49384 30.8132L9.23771 30.5613C9.43147 30.5419 9.60586 30.4063 9.68336 30.2319L10.4584 28.643C10.6716 28.1974 11.311 28.1974 11.5241 28.643L12.2992 30.2319C12.3767 30.4063 12.5511 30.5225 12.7448 30.5613Z" fill="white"/>
<path d="M23.3436 30.8519C24.7 30.8519 26.0369 30.8325 27.3933 30.8519C28.4202 30.8713 29.0596 31.4138 29.0984 32.2857C29.1371 33.1771 28.4783 33.8359 27.4514 33.8359C24.6612 33.8552 21.871 33.8359 19.1002 33.8552C18.2089 33.8552 17.5114 33.0414 17.5307 32.3439C17.5501 31.4913 18.1701 30.8907 19.1196 30.8713C20.5147 30.8325 21.9291 30.8519 23.3436 30.8519Z" fill="white"/>
<path d="M23.2661 5.56584C21.9098 5.56584 20.5728 5.56584 19.2165 5.56584C18.2477 5.56584 17.5889 4.94579 17.5889 4.05449C17.5889 3.18255 18.1895 2.60126 19.1777 2.60126C21.9292 2.58189 24.6612 2.58189 27.4126 2.60126C28.4008 2.60126 29.0403 3.24068 29.0015 4.13199C28.9821 4.98455 28.3233 5.56584 27.3739 5.56584C26.0176 5.56584 24.6418 5.56584 23.2661 5.56584Z" fill="white"/>
<path d="M35.415 12.6963C35.3957 11.6306 34.8725 11.0881 33.8068 10.9912C33.5549 10.9718 33.303 10.9718 33.0705 10.9718C23.5761 10.9718 14.0817 10.9718 4.56797 10.9718C3.83167 10.9718 3.076 10.9525 2.3397 10.9718C1.21587 11.0106 0.615207 11.5725 0.595831 12.6963C0.576455 16.2809 0.576455 19.8656 0.595831 23.4308C0.595831 24.4577 1.21587 25.0196 2.26219 25.1165C2.51408 25.1359 2.76598 25.1359 2.99849 25.1359C8.01695 25.1359 13.0354 25.1359 18.0539 25.1359C23.1886 25.1359 28.3233 25.1359 33.458 25.1359C34.8337 25.1359 35.4344 24.5352 35.4344 23.1595C35.4344 20.6987 35.4344 18.2573 35.4344 15.7965C35.415 14.7502 35.4344 13.7233 35.415 12.6963ZM14.4305 17.6567L12.9967 19.0518C12.8416 19.2068 12.7641 19.4199 12.8029 19.633L13.1323 21.59C13.2292 22.1326 12.6479 22.5589 12.1635 22.2876L10.4002 21.3575C10.2065 21.2606 9.97396 21.2606 9.78019 21.3575L8.01695 22.2876C7.53254 22.5395 6.95126 22.1326 7.04814 21.59L7.37753 19.633C7.41629 19.4199 7.33878 19.1874 7.18377 19.0518L5.78868 17.6567C5.40115 17.2691 5.61429 16.591 6.15683 16.5135L8.13321 16.2228C8.34635 16.1841 8.54011 16.0484 8.63699 15.8547L9.50893 14.072C9.76082 13.5683 10.4584 13.5683 10.7103 14.072L11.5822 15.8547C11.6791 16.0484 11.8728 16.1841 12.086 16.2228L14.0624 16.5135C14.6049 16.591 14.818 17.2691 14.4305 17.6567ZM29.5053 19.5943C29.1177 19.8074 28.6527 19.9431 28.1877 19.9431C26.7345 19.9818 25.1843 19.9624 23.828 19.9624C22.2779 19.9624 20.8247 19.9818 19.3521 19.9624C17.9376 19.9237 17.1238 18.8386 17.5888 17.5985C17.8989 16.7847 18.577 16.436 19.3908 16.436C22.3554 16.4166 25.3394 16.4166 28.3039 16.436C29.2534 16.436 29.9509 16.9591 30.1641 17.6373C30.3578 18.4123 30.1447 19.2261 29.5053 19.5943Z" fill="#FFB800"/>
<path d="M67.5216 17.9667C67.4634 19.6524 67.3472 21.1638 66.514 22.5007C65.7583 23.7214 64.6345 24.419 63.2394 24.7484C62.1931 25.0003 61.1274 25.0196 60.0617 24.884C58.5697 24.6902 57.2909 24.109 56.3221 22.8689C55.4501 21.7257 55.1207 20.4275 55.1014 19.0517C55.082 17.9473 55.1401 16.8041 55.4114 15.7578C55.8764 14.0333 56.9615 12.7738 58.7247 12.1925C60.0036 11.7663 61.3405 11.7081 62.6194 11.9213C64.9251 12.2894 66.3784 13.3164 67.1147 15.7578C67.3859 16.5134 67.4247 17.3273 67.5216 17.9667ZM63.9176 18.3154C63.9563 18.3154 63.7819 16.8041 63.5494 16.0872C63.2394 15.1184 62.4837 14.6339 61.4762 14.5758C60.4298 14.5177 59.5967 14.9052 59.1316 15.874C58.4922 17.211 58.5503 18.6255 58.841 20.0012C59.1898 21.6482 60.1586 22.3263 61.7862 22.1132C62.5612 22.0163 63.1038 21.59 63.4525 20.9312C63.8788 20.1174 63.9176 19.2068 63.9176 18.3154Z" fill="white"/>
<path d="M111.971 18.5674C111.913 20.0012 111.854 21.5901 111.041 23.0433C110.459 24.0896 109.549 24.7096 108.367 24.884C107.437 25.0003 106.507 25.0003 105.596 24.6321C104.491 24.2059 103.813 23.3921 103.406 22.3457C102.903 21.0669 102.786 19.6912 102.786 18.3348C102.806 16.9785 102.883 15.6222 103.406 14.3627C103.871 13.2776 104.588 12.3863 105.809 12.0569C106.952 11.7469 108.095 11.7275 109.239 12.1732C110.324 12.5995 110.983 13.4326 111.37 14.479C111.835 15.7384 111.951 17.056 111.971 18.5674ZM106.197 20.1175C106.235 20.7181 106.274 21.3575 106.662 21.8807C106.991 22.3651 107.592 22.4232 107.999 22.0163C108.502 21.5126 108.522 20.8344 108.541 20.2143C108.599 19.0324 108.599 17.8311 108.541 16.6297C108.522 16.0484 108.464 15.4284 108.095 14.9052C107.766 14.4596 107.069 14.3821 106.759 14.8084C106.584 15.0409 106.429 15.3121 106.39 15.6028C106.003 17.4629 106.138 19.4974 106.197 20.1175Z" fill="white"/>
<path d="M71.0868 18.3736C71.0868 16.4166 71.0868 14.4596 71.0868 12.5026C71.0868 12.115 71.1837 11.9794 71.5906 11.9988C73.2182 12.0375 74.8264 11.9988 76.454 12.0569C77.6941 12.115 78.8373 12.5219 79.6124 13.5489C79.903 13.9364 80.1355 14.4208 80.2324 14.9052C80.4649 16.0872 80.4649 17.2885 79.8643 18.3929C79.283 19.4586 78.3529 20.0981 77.1903 20.3112C76.4734 20.4468 75.7177 20.4662 74.9814 20.505C74.652 20.5243 74.5358 20.6212 74.5358 20.9506C74.5552 22.0551 74.5358 23.1789 74.5551 24.2833C74.5551 24.6321 74.4389 24.7678 74.0901 24.7484C73.2569 24.729 72.4238 24.729 71.5906 24.7484C71.2031 24.7678 71.1062 24.6127 71.1062 24.264C71.0868 22.3263 71.0868 20.35 71.0868 18.3736ZM74.5164 16.2228C74.5164 16.6103 74.5164 17.0172 74.5164 17.4048C74.5164 17.6566 74.6133 17.7535 74.8652 17.7729C75.369 17.7923 75.834 17.7342 76.2796 17.4435C76.7253 17.1529 77.0353 16.4166 76.9384 15.8547C76.8222 15.254 76.454 14.8665 75.8727 14.7696C75.5627 14.7115 75.2333 14.7308 74.9039 14.7115C74.6327 14.6921 74.5358 14.8277 74.5358 15.099C74.5164 15.4478 74.5164 15.8353 74.5164 16.2228Z" fill="white"/>
<path d="M128.518 14.8858C129.293 14.8858 130.03 14.8665 130.785 14.9052C130.901 14.9052 131.037 15.0409 131.115 15.1571C131.231 15.3896 131.308 15.6609 131.405 15.8934C131.502 16.1453 131.638 16.1647 131.832 15.9709C133.13 14.5952 135.184 14.2658 136.772 15.2734C137.373 15.6609 137.858 16.2228 137.974 16.9785C138.051 17.5792 138.129 18.1992 138.148 18.7999C138.168 20.6212 138.148 22.4232 138.168 24.2446C138.168 24.6515 138.032 24.7484 137.664 24.7484C136.869 24.729 136.094 24.729 135.3 24.7484C134.951 24.7484 134.835 24.6321 134.835 24.2834C134.835 22.5201 134.835 20.7569 134.796 19.013C134.777 18.6061 134.66 18.1604 134.467 17.8117C134.04 17.0947 132.762 17.211 132.355 18.0054C132.161 18.393 132.006 18.858 131.987 19.2843C131.909 20.8925 131.89 22.5201 131.87 24.1283C131.851 24.7484 131.87 24.7484 131.231 24.7484C130.456 24.7484 129.681 24.7484 128.906 24.7484C128.654 24.7484 128.518 24.6903 128.518 24.3996C128.518 21.2994 128.518 18.1992 128.518 15.099C128.479 15.0602 128.499 15.0215 128.518 14.8858Z" fill="white"/>
<path d="M157.718 19.8462C157.718 21.3188 157.699 22.772 157.718 24.2446C157.718 24.6321 157.621 24.8065 157.195 24.7872C156.653 24.7484 156.129 24.7678 155.587 24.7872C155.296 24.7872 155.141 24.6709 155.064 24.3996C155.064 24.3803 155.044 24.3415 155.044 24.3221C154.792 23.4502 154.773 23.4502 154.134 24.0509C153.3 24.8453 152.273 25.0197 151.169 24.9422C150.161 24.8647 149.29 24.5353 148.708 23.644C148.263 22.9852 148.127 22.2489 148.127 21.4932C148.127 19.4393 148.127 17.3854 148.127 15.3315C148.127 15.0021 148.243 14.8859 148.573 14.9052C149.406 14.9246 150.239 14.9246 151.072 14.9052C151.402 14.9052 151.479 15.0215 151.479 15.3315C151.479 17.1529 151.479 18.9549 151.518 20.7763C151.518 21.1444 151.615 21.5901 151.828 21.8807C152.332 22.617 153.591 22.462 153.998 21.6288C154.172 21.28 154.308 20.8538 154.308 20.4662C154.366 18.7999 154.366 17.1141 154.366 15.4478C154.366 15.0215 154.482 14.8859 154.909 14.9052C155.703 14.944 156.478 14.9246 157.273 14.9052C157.602 14.9052 157.718 15.0215 157.699 15.3509C157.718 16.8235 157.718 18.3349 157.718 19.8462Z" fill="white"/>
<path d="M162.814 17.7342C162.504 17.0173 162.214 16.3585 161.884 15.6222C162.175 15.5059 162.446 15.3703 162.717 15.2734C164.364 14.7309 166.05 14.4984 167.736 14.944C169.247 15.3509 170.138 16.3779 170.177 18.1799C170.235 20.2531 170.177 22.3264 170.197 24.3803C170.197 24.7097 170.061 24.7872 169.77 24.7872C169.247 24.7678 168.724 24.7678 168.201 24.7872C167.949 24.7872 167.794 24.7097 167.678 24.4578C167.542 24.1478 167.348 23.8377 167.155 23.4696C166.961 23.644 166.806 23.7602 166.689 23.8959C166.147 24.5353 165.43 24.8647 164.597 24.9228C164.016 24.9616 163.395 25.0003 162.853 24.8647C161.768 24.6128 161.128 23.8377 160.935 22.7527C160.78 21.8226 160.78 20.9119 161.361 20.0787C161.807 19.4393 162.446 19.0712 163.163 18.9355C164.132 18.7611 165.139 18.703 166.128 18.5868C166.36 18.5674 166.748 18.5093 166.748 18.4317C166.767 18.1605 166.748 17.8311 166.593 17.5986C166.283 17.0948 165.74 17.0173 165.197 17.1335C164.519 17.2692 163.88 17.4823 163.221 17.6761C163.124 17.6761 162.989 17.6954 162.814 17.7342ZM166.244 20.2919C165.779 20.4275 165.294 20.5244 164.868 20.7375C164.403 20.9507 164.248 21.4738 164.364 21.997C164.442 22.3845 164.694 22.5783 165.062 22.617C166.166 22.7527 166.864 22.1132 166.883 20.9894C166.883 20.3694 166.864 20.35 166.244 20.2919Z" fill="white"/>
<path d="M49.6566 19.8075C49.6566 21.2994 49.6372 22.7914 49.6566 24.2834C49.6566 24.6515 49.5597 24.7872 49.1721 24.7678C48.3777 24.7484 47.6027 24.7484 46.8082 24.7678C46.4013 24.7872 46.2851 24.6322 46.2851 24.2446C46.3045 21.3188 46.2851 18.393 46.2851 15.4478C46.2851 14.7309 46.2851 14.7309 45.5488 14.7309C44.89 14.7309 44.2312 14.7115 43.5724 14.7309C43.2624 14.7309 43.1074 14.634 43.1267 14.3046C43.1461 13.6652 43.1461 13.0451 43.1267 12.4057C43.1267 12.1151 43.2236 11.9988 43.5143 11.9988C46.4788 11.9988 49.4628 11.9988 52.4274 11.9988C52.7374 11.9988 52.8149 12.1151 52.8149 12.4057C52.7955 13.0451 52.7955 13.7039 52.8149 14.3433C52.8149 14.634 52.718 14.7502 52.4274 14.7309C51.7298 14.7115 51.0516 14.7309 50.3541 14.7309C49.6759 14.7309 49.6566 14.7502 49.6566 15.4478C49.6566 16.901 49.6566 18.3542 49.6566 19.8075Z" fill="white"/>
<path d="M95.0746 15.8159C94.3577 16.436 93.6602 17.0754 92.9045 17.7342C92.3038 16.9979 91.7419 16.3003 91.1412 15.5834C91.6063 15.1765 92.0519 14.8083 92.4976 14.4208C93.3501 13.7233 94.2027 13.0451 95.0359 12.3476C95.3071 12.115 95.5784 11.9794 95.9466 11.9988C96.6635 12.0182 97.3804 12.0182 98.0973 11.9988C98.4655 11.9794 98.5817 12.1344 98.5817 12.4832C98.5624 16.3972 98.5817 20.3112 98.5817 24.2252C98.5817 24.7484 98.5624 24.7678 98.0198 24.7678C97.2254 24.7678 96.4503 24.7484 95.6559 24.7678C95.2684 24.7871 95.1521 24.6709 95.1521 24.264C95.1715 21.7063 95.1715 19.168 95.1715 16.6103C95.1715 16.3391 95.1715 16.0872 95.1715 15.8159C95.1521 15.8353 95.1134 15.8353 95.0746 15.8159Z" fill="white"/>
<path d="M121.446 19.8268C121.446 18.3348 121.446 16.8428 121.446 15.3509C121.446 15.0215 121.523 14.8665 121.891 14.8858C122.725 14.9052 123.558 14.9052 124.391 14.8858C124.72 14.8858 124.875 14.9633 124.875 15.3315C124.856 18.3348 124.856 21.3188 124.875 24.3221C124.875 24.6902 124.72 24.7871 124.391 24.7677C123.558 24.7484 122.725 24.7484 121.891 24.7677C121.562 24.7677 121.446 24.6515 121.465 24.3221C121.446 22.8301 121.446 21.3188 121.446 19.8268Z" fill="white"/>
<path d="M85.6772 17.9086C86.3747 17.9086 87.0529 17.9086 87.7504 17.9086C88.0217 17.9086 88.1186 18.0054 88.1186 18.2767C88.0992 18.9161 88.0992 19.5362 88.1186 20.1756C88.1186 20.4275 88.0411 20.5631 87.7698 20.5631C86.3941 20.5631 85.0184 20.5631 83.6233 20.5631C83.352 20.5631 83.2551 20.4662 83.2551 20.195C83.2745 19.5556 83.2745 18.9355 83.2551 18.2961C83.2551 17.9861 83.3714 17.9086 83.662 17.9086C84.3402 17.9086 85.0184 17.9086 85.6772 17.9086Z" fill="white"/>
<path d="M143.244 21.7644C143.748 21.8032 144.349 21.8807 144.678 22.5007C144.969 23.082 145.027 23.7796 144.6 24.3609C144.194 24.9421 143.574 25.0584 142.915 25.0003C142.624 24.9615 142.295 24.9034 142.043 24.729C141.268 24.2252 141.19 23.5083 141.403 22.8108C141.617 22.0938 142.217 21.7644 143.244 21.7644Z" fill="white"/>
<path d="M116.505 21.7644C117.59 21.8032 118.287 22.462 118.21 23.4695C118.132 24.5934 117.512 25.0003 116.447 25.0197C115.342 25.0584 114.606 24.3221 114.645 23.392C114.683 22.2682 115.362 21.7451 116.505 21.7644Z" fill="white"/>
<path d="M124.914 12.3863C124.992 12.9676 124.701 13.3551 124.178 13.6264C123.5 13.9752 122.802 13.8977 122.143 13.6458C121.543 13.4132 121.33 12.7932 121.446 11.9213C121.523 11.3981 121.95 11.0106 122.57 10.9525C122.938 10.9137 123.325 10.8943 123.693 10.9525C124.43 11.0493 124.953 11.4175 124.914 12.3863Z" fill="white"/>
</svg>
